# xmcd
#
# Track frame offsets:
#	150
#	11801
#	24532
#	37147
#	49960
#	63933
#	77307
#	89690
#	106159
#	122847
#	151501
#	165024
#	177769
#	189971
#	202360
#	214105
#	228471
#	243926
#	258590
#	271313
#
# Disc length: 3782 seconds
#
# Revision: 0
# Processed by: cddbd v1.5.2PL0 Copyright (c) Steve Scherf et al.
# Submitted via: dBpowerAMP V4.0
#
DISCID=070ec414
DTITLE=Greatest Blues Shouters - 1944-1955
DYEAR=2007
DGENRE=Blues
TTITLE0=Big Joe Turner - Feeling so sad
TTITLE1=Big Joe Turner - Still in the dark
TTITLE2=Big Joe Turner - Poor Lover's Blues
TTITLE3=Big Joe Turner - T.V. Mama
TTITLE4=Shake Rattle and Roll
TTITLE5=Jimmy Bushing - Jimmy's Blues
TTITLE6=Jimmy Bushing - Somebody's spoiling these women
TTITLE7=Jimmy Bushing - Goin' to Chicago Blues
TTITLE8=Jimmy Bushing - Boogie woogie (i may be wrong)
TTITLE9=Jimmy Bushing - Everyday i have the blues
TTITLE10=Wynonie Harris - Here comes the blues
TTITLE11=Wynonie Harris - In the evening
TTITLE12=Wynonie Harris - Good rockin' tonight
TTITLE13=Wynonie Harris - Bloodshot eyes
TTITLE14=Wynonie Harris - Night train
TTITLE15=Big Joe Turner and Wynonie Harris - Goin'home
TTITLE16=Eddy Vinson - Somebody's got to go
TTITLE17=Eddy Vinson - Juice head Blues
TTITLE18=Eddy Vinson - Cherry red blues
TTITLE19=Eddy Vinson - My big brass bed is gone
EXTD=Greatest Blues Shouters (The]\nDisc One
EXTT0=
EXTT1=
EXTT2=
EXTT3=
EXTT4=
EXTT5=
EXTT6=
EXTT7=
EXTT8=
EXTT9=
EXTT10=
EXTT11=
EXTT12=
EXTT13=
EXTT14=
EXTT15=
EXTT16=
EXTT17=
EXTT18=
EXTT19=
PLAYORDER=
